<?xml version="1.0" standalone="yes"?>

<svg version="1.1" viewBox="0.0 0.0 1024.0 1024.0" fill="none" stroke="none" stroke-linecap="square" stroke-miterlimit="10" xmlns="http://www.w3.org/2000/svg" xmlns:xlink="http://www.w3.org/1999/xlink"><clipPath id="p.0"><path d="m0 0l1024.0 0l0 1024.0l-1024.0 0l0 -1024.0z" clip-rule="nonzero"></path></clipPath><g clip-path="url(#p.0)"><path fill="#000000" fill-opacity="0.0" d="m0 0l1024.0 0l0 1024.0l-1024.0 0z" fill-rule="evenodd"></path><path fill="#428bca" d="m0 512.0l0 0c0 -282.76978 229.23021 -512.0 512.0 -512.0l0 0c135.79083 0 266.02002 53.942703 362.0387 149.96133c96.018616 96.018616 149.9613 226.24783 149.9613 362.03867l0 0c0 282.76978 -229.23022 512.0 -512.0 512.0l0 0c-282.76978 0 -512.0 -229.23022 -512.0 -512.0z" fill-rule="evenodd"></path><path stroke="#428bca" stroke-width="1.0" stroke-linejoin="round" stroke-linecap="butt" d="m0 512.0l0 0c0 -282.76978 229.23021 -512.0 512.0 -512.0l0 0c135.79083 0 266.02002 53.942703 362.0387 149.96133c96.018616 96.018616 149.9613 226.24783 149.9613 362.03867l0 0c0 282.76978 -229.23022 512.0 -512.0 512.0l0 0c-282.76978 0 -512.0 -229.23022 -512.0 -512.0z" fill-rule="evenodd"></path><path fill="#ffffff" d="m245.18631 264.2421l243.87402 0l0 224.06299l-243.87402 0z" fill-rule="evenodd"></path><path stroke="#ffffff" stroke-width="12.0" stroke-linejoin="round" stroke-linecap="butt" d="m245.18631 264.2421l243.87402 0l0 224.06299l-243.87402 0z" fill-rule="evenodd"></path><path fill="#ffffff" d="m534.9408 264.23947l243.87402 0l0 224.06299l-243.87402 0z" fill-rule="evenodd"></path><path stroke="#ffffff" stroke-width="12.0" stroke-linejoin="round" stroke-linecap="butt" d="m534.9408 264.23947l243.87402 0l0 224.06299l-243.87402 0z" fill-rule="evenodd"></path><path fill="#ffffff" d="m245.1862 535.69727l243.87401 0l0 224.06299l-243.87401 0z" fill-rule="evenodd"></path><path stroke="#ffffff" stroke-width="12.0" stroke-linejoin="round" stroke-linecap="butt" d="m245.1862 535.69727l243.87401 0l0 224.06299l-243.87401 0z" fill-rule="evenodd"></path><path fill="#ffffff" d="m534.93677 535.69727l243.87402 0l0 224.06299l-243.87402 0z" fill-rule="evenodd"></path><path stroke="#ffffff" stroke-width="12.0" stroke-linejoin="round" stroke-linecap="butt" d="m534.93677 535.69727l243.87402 0l0 224.06299l-243.87402 0z" fill-rule="evenodd"></path></g></svg>

